<svg xmlns="http://www.w3.org/2000/svg" viewBox="-551.1 -1871.9 7415.4 7415.4"><rect width="7415.4" height="7415.4" x="-551.1" y="-1871.9" rx="1483.1"/><path fill="#fff" d="m3991.5 416.6-39 1.9a922 922 0 0 0-74.4 5c-5.2.8-16 1.9-24 2.5s-19.1 2-24.6 3.1a312 312 0 0 1-21 3c-6 .5-14.7 1.9-19.2 2.9a182 182 0 0 1-17.5 3c-5.1.6-12.5 2-16.3 3.1a158 158 0 0 1-15.5 3c-4.7.6-11.2 2-14.5 3.1-3.3 1-9.3 2.3-13.2 2.9a99 99 0 0 0-12.9 2.9c-3 1.1-8.3 2.4-11.7 3a123 123 0 0 0-13.5 3.5c-4 1.4-8.2 2.5-9.5 2.5-1.2 0-6 1.4-10.7 3s-9.3 3-10.5 3c-1.1.1-4.5 1-7.5 2.1s-8.7 2.9-12.6 3.8c-3.9 1-8.4 2.6-10.1 3.4-1.6.9-5.6 2.2-8.9 3-3.2.8-8.1 2.4-10.9 3.5a120 120 0 0 1-10 3.7l-11 3.7c-3.3 1.1-8.3 3-11.1 4.4a29 29 0 0 1-6.5 2.4 36 36 0 0 0-7.5 2.9 57 57 0 0 1-9.5 3.6c-1.9.4-5.2 1.8-7.5 3.1a18 18 0 0 1-5.6 2.4 23 23 0 0 0-6 2.4 46 46 0 0 1-6.9 3.1c-2.8.8-15.2 6.5-22 10.1a25 25 0 0 1-6.2 2.4c-.8 0-3.1 1.1-5.1 2.5s-4.9 2.8-6.4 3.1-4.8 1.9-7.3 3.5a20 20 0 0 1-6 2.9 21 21 0 0 0-5.9 3 20 20 0 0 1-6.1 3c-.8 0-3.3 1.3-5.5 3-2.1 1.6-4.6 3-5.5 3s-3.2 1.1-5.2 2.4c-2 1.4-5.5 3.4-7.9 4.6q-7.6 3.8-20.3 11.4c-3.3 1.9-7.6 4.3-9.5 5.2s-4.4 2.4-5.5 3.4a24 24 0 0 1-5.5 3.5c-1.9.9-4.9 2.6-6.7 3.8l-8.3 5.2a106 106 0 0 0-8.5 5.5l-6.6 4.5a306 306 0 0 0-15.3 10l-9 6a67 67 0 0 0-6.4 4.5c-3.1 2.4-6.5 5-14.7 11a551 551 0 0 0-16.9 12.8l-6.9 5.5c-6.4 5-40.9 34.6-49.6 42.6a825 825 0 0 0-50.4 51.1l-11.8 13.5c-5.1 5.6-20.6 24-24.8 29.5l-8.4 10.9c-4.7 6-7.3 9.5-10.2 13.7l-6.5 8.7c-2.5 3.3-6.5 9.1-9 13.1a159 159 0 0 1-7.2 10.7 17 17 0 0 0-2.8 4.3c0 .3-1.5 2.8-3.2 5.5-1.8 2.6-4.4 6.7-5.8 9s-3.5 5.7-4.7 7.4a98 98 0 0 0-4.6 7.7l-5.2 9.5a843 843 0 0 0-37.5 76.7c-.6 2.1-1.5 4-2 4.3a20 20 0 0 0-2.5 6.3c-.9 3.1-2.3 6.6-3 7.8s-2.1 4.8-3.1 8-2.3 7-3 8.4-2.3 5.4-3.4 9c-2.2 7.4-5.4 17.4-7.6 24-.9 2.5-2.3 7.2-3.1 10.5l-3.6 12.5c-1.1 3.6-2.8 10.1-3.7 14.5s-2.7 11.6-3.9 15.9a70 70 0 0 0-2.1 10.7c0 1.5-1.1 6.9-2.4 12-1.4 5.2-3 14.1-3.6 19.8s-2 14.5-3 19.5-2.4 16.1-2.9 24.6-1.8 21.9-2.6 29.6a812 812 0 0 0-.1 127.7c.9 8.9 2 24.3 2.6 34.2s2 22.5 3 28c1.1 5.5 2.4 14.9 3 21s2.2 15.7 3.5 21.5 2.6 13.1 3 16.3c.3 3.1 1.5 8.8 2.6 12.5a108 108 0 0 1 2.9 13.2 106 106 0 0 0 3.5 14c1.3 4.1 2.7 9.5 3.1 12 .3 2.4 1.4 6.3 2.4 8.5s2.3 6.8 3 10.1 2 7.5 3 9.4 2.3 6 3 9 1.9 6.8 2.7 8.3 2.5 5.9 3.8 9.5c6 17.2 7.7 21.5 9.5 24.5a564 564 0 0 0 25.8 53.7l6.1 11.1a31 31 0 0 0 4.5 6.8c.9.8 1.6 1.9 1.6 2.5 0 1 3.6 6.8 10 16.1l6.1 9.2c4.7 7.2 6.3 8.7 10.4 10 2.7.9 3.1 1.5 3.5 6.1.4 3.6 1.3 5.8 3 7.5a82 82 0 0 1 6.2 7.4 768 768 0 0 0 108.3 111.6l13 10.6a381 381 0 0 0 24 18.2c6.3 4.7 20 14.1 25.9 17.7 1.6.9 4.1 2.7 5.6 3.9a10 10 0 0 0 3.9 2.3c.5 0 2.5 1.3 4.3 2.9s4.9 3.6 6.8 4.5 6 3.2 9 5.1 7.1 4.3 9 5.2 4.9 2.8 6.5 3.9c1.7 1.2 5 3.1 7.5 4.3l7 3.6 5.2 2.7 18 9.1c8.4 4.2 15.8 7.7 16.4 7.7s2.8 1.1 4.9 2.5c2 1.4 5.1 2.9 6.9 3.2 1.7.3 4.9 1.9 7 3.4 2.2 1.6 5 2.9 6.3 2.9s4.9 1.3 8.1 3c3.3 1.6 6.6 3 7.3 3s4.1 1.4 7.4 3 6.5 3 7.3 3a26 26 0 0 1 6 2.4 67 67 0 0 0 9.2 3.6c2.5.6 5.9 2 7.5 3a25 25 0 0 0 6.4 2.5c1.9.4 6.1 2 9.5 3.6s7 2.9 8 2.9a24 24 0 0 1 7.1 2.5 64 64 0 0 0 10.1 3.5 25 25 0 0 1 7 2.5c1.2.8 5 2.1 8.5 3 3.4.9 7.9 2.5 9.8 3.5s6 2.3 8.9 2.9 6.7 1.8 8.4 2.7a57 57 0 0 0 10.2 3.4 341 341 0 0 1 24.6 7.7c2.5.8 8.3 2.6 13 3.8a141 141 0 0 1 11.5 3.5c1.7.7 6.4 2 10.5 3s10.1 2.7 13.2 3.9a38 38 0 0 0 8.3 2.1 40 40 0 0 1 8.9 2.4c3.6 1.4 8.6 2.8 11.3 3.1 2.6.4 8 1.8 11.8 3.1s9.9 2.8 13.4 3.4 8.5 2 11 2.9c2.5 1 7.1 2.2 10.1 2.6s8.9 1.8 13 3c4.1 1.3 10.9 2.9 15 3.5s9.8 2.1 12.6 3c2.9 1 8.7 2.4 12.9 3s9.6 1.8 11.8 2.6 8.4 2.2 13.7 3 12.4 2.4 16 3.4c3.6 1.1 10.1 2.4 14.5 3 4.3.6 10.9 1.9 14.5 3 3.6 1 10.3 2.4 15 3 4.7.5 11.9 1.9 16 3.1 4.1 1.1 11 2.4 15.2 2.9a114 114 0 0 1 14.8 3 114 114 0 0 0 14.8 3c4.2.5 10.9 1.9 14.7 3a116 116 0 0 0 14.7 3c4.3.5 10.8 1.8 14.4 3a80 80 0 0 0 12.3 2.6c3.1.3 9.7 1.6 14.6 2.9s12.4 2.8 16.5 3.4a79 79 0 0 1 12 2.6c2.5.9 8.6 2.2 13.7 3s12.3 2.3 16 3.4 10.2 2.4 14.3 3 10.1 1.9 13.3 3c3.1 1.1 8.5 2.3 12 2.7 3.4.4 9.6 1.7 13.7 3a130 130 0 0 0 15.3 3.3c4.2.6 9.4 1.8 11.4 2.6s7.8 2.2 12.8 3 11.7 2.4 14.7 3.4c3.1 1.1 8.7 2.4 12.4 3s9.5 1.9 12.5 3c3.1 1 8.8 2.4 12.5 3 3.8.6 9.5 1.9 12.6 3 3.2 1.1 7.9 2.3 10.5 2.6s9 2 14.1 3.6a68 68 0 0 0 12 2.9c1.5 0 5.9 1.2 9.7 2.5 3.9 1.4 9.9 3 13.4 3.5s8.4 2.2 11 3.5a19 19 0 0 0 8.9 2.5c2.4 0 7.2 1.1 10.6 2.5s8.6 2.9 11.6 3.5c2.9.6 7.7 2.1 10.6 3.5s6.5 2.5 8.1 2.5 5.1 1.1 7.8 2.3c2.8 1.3 7.2 2.9 9.9 3.6 2.7.6 7 2.3 9.7 3.6s5.6 2.5 6.6 2.5 4.5 1.4 7.8 3 6.6 3 7.5 3c.8.1 4 1.4 7 3s6.2 3 7.1 3 3.2 1.1 5.2 2.5 5.4 2.9 7.6 3.5a12 12 0 0 1 5.1 2.5c.6.7 3.4 2.1 6.1 3s5.2 2.1 5.5 2.7c.4.6 3 2.1 5.8 3.4 2.8 1.4 7.8 4 11.1 5.9 12 6.9 11.8 6.8 28.6 17.9 2.4 1.6 5 3.5 5.7 4.3s2.3 1.8 3.5 2.5c6.8 3.6 28.8 22.7 40.1 34.7l7.1 7.7q6.7 7.2 12.8 16.4c2 3 4.5 6.7 5.7 8.2 2.6 3.4 16 29.6 16 31.3 0 .8 1.1 3.5 2.5 6.1s2.5 5.5 2.5 6.5 1.1 4.8 2.5 8.4 3.1 10.5 4 15.3 2.3 11.2 3.2 14.2c1.4 4.6 1.7 11.9 2 46.2.5 42.6.6 39.8-4.2 65.8a253 253 0 0 1-13.5 47.9 291 291 0 0 1-41.9 72.7 351 351 0 0 1-21 22.4 198 198 0 0 1-27.6 25l-7.8 6.1c-1.8 1.4-5.7 4.2-8.7 6.2l-9 6.2a62 62 0 0 1-13.7 8.5c-.7 0-2.7 1.3-4.5 2.9a21 21 0 0 1-5.8 3.6c-1.4.4-3.8 1.8-5.5 3-1.6 1.2-9.3 5.2-17 8.9l-19.9 9.7a32 32 0 0 1-7.3 2.9c-.7 0-2.6.8-4 1.7-2.6 1.7-7.8 3.8-21.3 8.3-3.6 1.2-9 3.2-12 4.5s-7.1 2.6-9 3a85 85 0 0 0-9.7 3.1 39 39 0 0 1-8.2 2.4c-1.1 0-5.7 1.2-10.1 2.6-4.5 1.4-10.9 3-14.3 3.5s-9 1.9-12.4 2.9c-3.4 1.1-10.2 2.4-15 3.1-4.9.6-12.4 2-16.8 3s-13.2 2.4-19.5 2.9-17.8 2-25.5 3.3c-13.6 2.1-16.2 2.2-91 2.2s-77.4-.1-92-2.2c-8.2-1.3-20.4-2.8-26.9-3.3s-14.6-1.7-17.8-2.5c-3.1-.9-10.6-2.2-16.5-3-6-.9-13.9-2.4-17.8-3.4-3.8-1.1-10-2.4-13.6-3s-9.1-2-12.1-3-7.4-2.2-9.9-2.5c-2.4-.4-8.2-2-12.9-3.5-4.7-1.6-10.3-3.3-12.5-3.9-5.1-1.3-15.5-4.9-22-7.4-2.7-1.1-7.2-2.6-9.8-3.4a38 38 0 0 1-8-3.2 22 22 0 0 0-6.2-2.6 73 73 0 0 1-9.5-3.8l-12.5-5.8a291 291 0 0 1-22-10.8c-6.3-3.2-16.2-8.7-26-14.4a908 908 0 0 1-43.5-29.1l-6.9-5.5a89 89 0 0 1-6.4-6c-1.7-1.7-3.6-3.2-4.3-3.2-1.3 0-2.3-.9-21.9-18.7a482 482 0 0 1-45.4-48.3 688 688 0 0 1-20.6-27.6q-9.1-14.4-12.2-18.8a80 80 0 0 1-4.6-7.6l-6-10.8a436 436 0 0 1-26.4-57.2c-1.3-3-3-7.8-3.8-10.5l-3.4-11c-3.8-11.1-8-26-8.7-30.5-.3-2.5-1.5-7.1-2.5-10.2-1-3.2-2.3-9.5-2.9-14s-2-12.4-3.2-17.3c-1.4-6.2-2.3-14.1-2.7-25.6-.6-17.2-1-18.7-5.4-21-1.1-.6-12.4-1.2-26.5-1.5-80.4-1.3-152.8-2.7-181.2-3.5-17.9-.5-94.6-1.4-170.5-1.9s-152.2-1.3-169.5-1.8l-31.5-.9-3.3 3.4c-2.6 2.7-3.2 4-2.8 6.1 2.8 14.6 2.7 26.2-.3 26.2-.6 0-1.7-2.2-2.5-5s-2.6-6.9-4-9.3a19 19 0 0 1-2.6-6.6 35 35 0 0 0-3-9.1c-1.6-3.8-3-8.1-3-9.7a14 14 0 0 0-2.5-6.5c-1.3-2-2.9-5.6-3.4-8s-2.2-6.9-3.6-9.9-2.5-6.3-2.5-7.4-1.4-4.9-3-8.3a32 32 0 0 1-3-8.5c0-1.2-1.4-4.9-3-8.2a27 27 0 0 1-3-9.1 16 16 0 0 0-2.6-7 23 23 0 0 1-3.4-9.6q-.6-5.8-2.8-8a20 20 0 0 1-3.1-6.9c-.6-2.5-2.2-7-3.6-10s-2.5-6.3-2.5-7.4a32 32 0 0 0-3-8 27 27 0 0 1-3-9.1 16 16 0 0 0-2.6-7 23 23 0 0 1-3.4-9.6q-.6-5.8-2.8-8a20 20 0 0 1-3.1-6.9c-.6-2.5-2.2-7-3.6-10s-2.5-6.3-2.5-7.4a32 32 0 0 0-3-8 30 30 0 0 1-3-9 21 21 0 0 0-3-8q-3-5-3-9.2c0-2.9-.7-5-2.5-7.1a20 20 0 0 1-3.4-7.4c-.6-2.4-2.2-6.9-3.6-9.9s-2.5-6.3-2.5-7.4a32 32 0 0 0-3-8 30 30 0 0 1-3-9 21 21 0 0 0-3-8q-3-5-3-9.2c0-2.9-.7-5-2.5-7.1a20 20 0 0 1-3.4-7.4c-.6-2.4-2.2-6.9-3.6-9.9s-2.5-6.3-2.5-7.5-1.1-4.2-2.5-6.8a32 32 0 0 1-3.1-8.9c-.4-2.3-2-6.6-3.5-9.6-1.6-3-2.9-7-2.9-9q0-3.6-3-8c-1.7-2.4-3-5.3-3-6.3 0-1.1-1.3-5-3-8.8s-3-7.6-3-8.5-1.3-4.7-3-8.5-3-7.8-3-8.9-1.3-4.7-3-7.8c-1.7-3.2-3-7.1-3-9.2q0-3.6-3-8c-1.7-2.4-3-5.3-3-6.3 0-1.1-1.3-5-3-8.8s-3-7.6-3-8.5-1.3-4.7-3-8.5-3-7.8-3-8.9-1.3-4.7-3-7.8a23 23 0 0 1-3-9.3 10 10 0 0 0-2-6.1 37 37 0 0 1-4.1-9.3 67 67 0 0 0-4-10.5c-1-2-1.9-4.5-1.9-5.6s-1.2-4.5-2.6-7.5a46 46 0 0 1-3.4-10.3c-.5-2.6-1.9-6-3-7.5a21 21 0 0 1-2.9-8.3c-.4-3-1.7-6.8-2.8-8.4a35 35 0 0 1-3.8-9c-.9-3.3-2.5-7.6-3.6-9.7-1-2-1.9-4.5-1.9-5.5s-1.2-4.3-2.6-7.3a46 46 0 0 1-3.4-10.3c-.5-2.6-1.9-6-3-7.5a21 21 0 0 1-2.9-8.4c-.4-3.1-1.6-6.7-2.8-8.2s-2.7-5-3.4-7.9a82 82 0 0 0-3.5-10.2 28 28 0 0 1-2.4-6.3c0-.8-1.3-4.4-3-8.2a40 40 0 0 1-3-9.2c0-1.3-1.4-5-3-8.3s-3-7.3-3-9-1.1-4.6-2.5-6.5c-1.4-1.8-2.8-5-3.1-6.9s-1.9-6.6-3.5-10.3a38 38 0 0 1-2.9-8.5c0-1-1.4-4.5-3-7.8a27 27 0 0 1-3-8.5 30 30 0 0 0-3-8.5 27 27 0 0 1-3-9.1 16 16 0 0 0-2.6-7 23 23 0 0 1-3.4-9.6q-.7-5.8-2.8-8a20 20 0 0 1-3.1-6.9c-.6-2.5-2.2-7-3.6-10s-2.5-6.3-2.5-7.4a32 32 0 0 0-3-8 27 27 0 0 1-3-9.1 16 16 0 0 0-2.6-7 23 23 0 0 1-3.4-9.6q-.7-5.8-2.8-8a20 20 0 0 1-3.1-6.9c-.6-2.5-2.2-7-3.6-10s-2.5-6.3-2.5-7.4a32 32 0 0 0-3-8 27 27 0 0 1-3-9.1 16 16 0 0 0-2.6-7 23 23 0 0 1-3.4-9.6q-.7-5.8-2.8-8a20 20 0 0 1-3.1-6.9c-.6-2.5-2.2-7-3.6-10s-2.5-6.3-2.5-7.4a32 32 0 0 0-3-8 30 30 0 0 1-3-9 21 21 0 0 0-3-8q-3-5-3-9.2c0-2.9-.7-5-2.5-7.1a20 20 0 0 1-3.4-7.4c-.6-2.4-2.2-6.9-3.6-9.9s-2.5-6.3-2.5-7.5-1.1-4.2-2.5-6.8a32 32 0 0 1-3.1-8.9c-.4-2.3-1.9-6.5-3.5-9.3a20 20 0 0 1-2.9-9.2q.1-4-2.5-7a20 20 0 0 1-3.4-7.4c-.6-2.4-2.2-6.9-3.6-9.9s-2.5-6.2-2.5-7.2-1.3-4.9-3-8.7-3-7.8-3-8.9-1.3-4.7-3-7.8c-1.7-3.2-3-7.1-3-9.2q0-3.6-3-8c-1.7-2.4-3-5.3-3-6.3 0-1.1-1.3-5-3-8.8s-3-7.6-3-8.5-1.3-4.7-3-8.5-3-7.8-3-8.9-1.3-4.7-3-7.8c-1.7-3.2-3-7.1-3-9.1 0-2.2-1-5-2.5-7.2-1.4-2-3.2-6.2-4-9.3s-2.4-7.3-3.5-9.4-2-4.7-2-5.8-1.2-4.5-2.6-7.5a46 46 0 0 1-3.4-10.3c-.5-2.6-1.9-6-3-7.5a21 21 0 0 1-2.9-8.3c-.4-3-1.7-6.8-2.8-8.4a35 35 0 0 1-3.8-9c-.9-3.3-2.5-7.6-3.6-9.7-1-2-1.9-4.5-1.9-5.5s-1.2-4.3-2.6-7.3a46 46 0 0 1-3.4-10.3c-.5-2.6-1.9-6-3-7.5a21 21 0 0 1-2.9-8.3c-.4-3-1.7-6.8-2.8-8.4a35 35 0 0 1-3.8-9c-.9-3.3-2.5-7.6-3.6-9.7-1-2-1.9-4.5-1.9-5.5s-1.2-4.3-2.6-7.3-3-7.7-3.5-10.3-1.8-6.2-3-7.8a24 24 0 0 1-2.8-8.3c-.4-2.9-1.7-6.5-2.8-8-1.2-1.4-2.7-5-3.4-7.9a82 82 0 0 0-3.5-10.2 28 28 0 0 1-2.4-6.3c0-.8-1.3-4.4-3-8.2a40 40 0 0 1-3-9.2c0-1.3-1.4-5-3-8.3s-3-7.3-3-9-1.1-4.7-2.5-6.7-2.9-5.6-3.4-8-2.2-6.9-3.6-9.9-2.5-6.3-2.5-7.4a32 32 0 0 0-3-8 27 27 0 0 1-3-8.5 30 30 0 0 0-3-8.5 27 27 0 0 1-3-9.1 16 16 0 0 0-2.6-7 23 23 0 0 1-3.4-9.6q-.7-5.8-2.8-8a20 20 0 0 1-3.1-6.9c-.6-2.5-2.2-7-3.6-10s-2.5-6.3-2.5-7.4a32 32 0 0 0-3-8 27 27 0 0 1-3-9.1 16 16 0 0 0-2.6-7 23 23 0 0 1-3.4-9.6q-.7-5.8-2.8-8a20 20 0 0 1-3.1-6.9c-.6-2.5-2.2-7-3.6-10s-2.5-6.3-2.5-7.4a32 32 0 0 0-3-8c-1.7-3.3-3-7.3-3-9 0-1.6-1.4-5.3-3-8q-3-5-3-9.2.1-4.1-2.5-7.1a20 20 0 0 1-3.4-7.4c-.6-2.4-2.2-6.9-3.6-9.9s-2.5-6.3-2.5-7.4a32 32 0 0 0-3-8 30 30 0 0 1-3-9 21 21 0 0 0-3-8q-3-5-3-9.2.1-4.1-2.5-7.1a20 20 0 0 1-3.4-7.4c-.6-2.4-2.2-6.9-3.6-9.9s-2.5-6.3-2.5-7.5-1.1-4.2-2.5-6.8a32 32 0 0 1-3.1-8.9c-.4-2.3-2-6.6-3.5-9.6-1.6-3-2.9-7-2.9-9q0-3.6-3-8c-1.7-2.4-3-5.3-3-6.3 0-1.1-1.4-5-3-8.8s-3-7.6-3-8.5-1.3-4.7-3-8.5-3-7.8-3-8.9-1.3-4.7-3-7.8c-1.7-3.2-3-7.1-3-9.2q0-3.6-3-8c-1.7-2.4-3-5.3-3-6.3a57 57 0 0 0-9.2-19.7c-.9-.3-162.1-.5-358.2-.3l-356.6.2-1.6 3.3c-.9 1.7-2.7 4.5-4 6a10 10 0 0 0-2.4 6.9q0 4-2.9 9.2c-1.6 2.8-3.1 7-3.5 9.3s-1.7 6.3-3.1 8.9a22 22 0 0 0-2.5 6.6c0 1.1-1.4 5-3 8.8s-3 7.7-3 8.8c0 1-1.3 3.9-3 6.3-1.9 2.8-3 5.7-3 7.9a29 29 0 0 1-2.9 9.5 72 72 0 0 0-3.9 10c-.5 2.2-1.9 6.2-3 9a341 341 0 0 0-7.4 20.5 48 48 0 0 1-4.5 10.2c-.9 1-2 4.3-2.4 7.3s-1.7 6.8-2.8 8.4a23 23 0 0 0-3.1 8 35 35 0 0 1-2.9 8.8c-1 2.1-2.4 5.8-3.1 8.3s-2.1 6.1-3.1 8.2-2.3 5.7-2.9 8.2c-.5 2.4-2.1 6.1-3.5 8.2s-2.5 5.1-2.5 6.8a27 27 0 0 1-3 9.1 32 32 0 0 0-3 8c0 1.1-1.2 4.4-2.5 7.4s-3 7.5-3.6 9.9c-.5 2.5-2.1 5.8-3.4 7.4a10 10 0 0 0-2.5 7.1q0 4.1-3 9.2a21 21 0 0 0-3 8 30 30 0 0 1-3 9 33 33 0 0 0-3 7.8c0 1-1.4 4.9-3 8.7s-3 7.7-3 8.8c0 1-1.3 3.9-3 6.3q-3 4.4-3 8c0 2.1-1.3 6-3 9.2s-3 6.6-3 7.8c0 1.1-1.4 5.1-3 8.9a38 38 0 0 0-3 8.7c0 1-.9 3.5-1.9 5.4a56 56 0 0 0-3.6 9.5c-.9 3.3-2.6 7.2-3.8 8.9a24 24 0 0 0-2.8 8.4c-.4 3-1.7 6.7-2.9 8.3-1.1 1.5-2.5 5-3 7.8s-1.8 6.7-2.9 8.7c-1 2.1-2.4 5.8-3.1 8.3s-2.1 6.1-3.1 8.2-2.3 5.7-2.9 8.3a31 31 0 0 1-3.5 8.3c-1.4 2-2.5 5-2.5 6.7s-1.1 5.4-2.5 8.2a58 58 0 0 0-3.9 9.9c-.7 2.7-2.3 7.1-3.4 9.9l-3.7 10-4 11.5a66 66 0 0 1-4.4 10 16 16 0 0 0-2.1 6.5 30 30 0 0 1-3 9 32 32 0 0 0-3 8c0 1.1-1.2 4.4-2.5 7.4s-3 7.5-3.6 9.9c-.5 2.5-2.1 5.8-3.4 7.4a10 10 0 0 0-2.5 6.6c0 2-1.3 6.4-2.9 9.7a72 72 0 0 0-3.9 10c-.5 2.2-1.9 6.2-3 9l-3.7 10-4.1 11.9a39 39 0 0 1-4.1 8.8c-.9 1-2 4.4-2.4 7.5s-1.7 6.9-2.9 8.5a23 23 0 0 0-3 7.5 46 46 0 0 1-3.4 10.3c-1.4 3-2.6 6.3-2.6 7.3s-.8 3.4-1.9 5.5c-1 2-2.8 6.8-4 10.7s-3 8.1-4.1 9.4a10 10 0 0 0-2 5.5 27 27 0 0 1-3 9.1 30 30 0 0 0-3 8.5 30 30 0 0 1-3 8.5 32 32 0 0 0-3 8c0 1.1-1.2 4.4-2.5 7.4a58 58 0 0 0-3.5 9.7 30 30 0 0 1-3.5 8c-1.4 2-2.5 5.1-2.5 6.8a27 27 0 0 1-3 9.1 32 32 0 0 0-3 8c0 1.1-1.2 4.4-2.5 7.4s-3 7.5-3.6 9.9c-.5 2.5-2.1 5.8-3.4 7.4a10 10 0 0 0-2.5 7q0 4-2.9 9.2c-1.6 2.8-3.1 7-3.5 9.3s-1.7 6.3-3.1 8.9a22 22 0 0 0-2.5 6.6c0 1.1-1.4 5-3 8.8s-3 7.7-3 8.8c0 1-1.3 3.9-3 6.3-1.9 2.8-3 5.7-3 7.9a29 29 0 0 1-2.9 9.5 72 72 0 0 0-3.9 10c-.5 2.2-1.9 6.2-3 9a341 341 0 0 0-7.4 20.5 48 48 0 0 1-4.5 10.2c-.9 1-2 4.3-2.4 7.3s-1.7 6.8-2.8 8.4a23 23 0 0 0-3.1 8 35 35 0 0 1-2.9 8.8c-1 2.1-2.4 5.8-3.1 8.3s-2.1 6.1-3.1 8.2-2.3 5.7-2.9 8.2c-.5 2.4-2.1 6.1-3.5 8.2s-2.5 5.1-2.5 6.8a27 27 0 0 1-3 9.1 32 32 0 0 0-3 8c0 1.1-1.2 4.4-2.5 7.4s-3 7.5-3.6 9.9c-.5 2.5-2.1 5.8-3.4 7.4a10 10 0 0 0-2.5 7.1q0 4.1-3 9.2a21 21 0 0 0-3 8 30 30 0 0 1-3 9 33 33 0 0 0-3 7.8c0 1-1.4 4.9-3 8.7s-3 7.7-3 8.8c0 1-1.3 3.9-3 6.3q-3 4.4-3 8c0 2.1-1.3 6-3 9.2s-3 6.6-3 7.8c0 1.1-1.4 5.1-3 8.9a38 38 0 0 0-3 8.7c0 1-.9 3.5-1.9 5.4a56 56 0 0 0-3.6 9.5c-.9 3.3-2.6 7.2-3.8 8.9a24 24 0 0 0-2.8 8.4c-.4 3-1.7 6.7-2.9 8.3-1.1 1.5-2.5 5-3 7.8s-1.8 6.7-2.9 8.7c-1 2.1-2.4 5.8-3.1 8.3s-2.1 6.1-3.1 8.2-2.3 5.7-2.9 8.3a31 31 0 0 1-3.5 8.3c-1.4 2-2.5 5-2.5 6.7s-1.3 5.7-3 9a32 32 0 0 0-3 8c0 1.1-1.2 4.4-2.5 7.4s-3 7.5-3.6 10-2 5.6-3.1 6.9q-2.2 2.2-2.8 8-.8 5.7-3.4 9.6a16 16 0 0 0-2.6 7c0 1.7-1.4 5.8-3 9.1a32 32 0 0 0-3 8c0 1.1-1.2 4.4-2.5 7.4s-3 7.5-3.6 9.9c-.5 2.5-2.1 5.8-3.4 7.4a10 10 0 0 0-2.5 6.7c0 2.3-1.2 6-3 9.4-1.7 3.1-3 6.6-3 7.8 0 1.1-1.4 5.1-3 8.9a38 38 0 0 0-3 8.7c0 1-.9 3.7-2 5.8a52 52 0 0 0-3.6 9.5 36 36 0 0 1-3.7 8.5 24 24 0 0 0-2.8 8.4c-.4 3-1.7 6.7-2.9 8.3-1.1 1.5-2.5 5-3 7.8s-1.8 6.7-2.9 8.7c-1 2.1-2.4 5.8-3.1 8.3s-2 6.1-3 8-2.3 5.8-2.9 8.7a27 27 0 0 1-3.7 8.4 13 13 0 0 0-2.4 6.4c0 1.7-1.3 5.7-3 9s-3 7-3 8.2-1.3 5-3 8.5c-1.6 3.4-3 7.2-3 8.3s-1.2 4.4-2.5 7.4a58 58 0 0 0-3.5 9.7 30 30 0 0 1-3.5 8c-1.4 2-2.5 5.1-2.5 6.8a27 27 0 0 1-3 9.1 32 32 0 0 0-3 8c0 1.1-1.2 4.4-2.5 7.4s-3 7.5-3.6 9.9c-.5 2.5-2.1 5.8-3.4 7.4a10 10 0 0 0-2.5 7q0 4-2.9 9.2a35 35 0 0 0-3.5 9.1c-.3 2.2-1.7 6.2-3.1 8.9a23 23 0 0 0-2.5 6.9c0 1-1.4 4.9-3 8.7s-3 7.7-3 8.8c0 1-1.2 3.7-2.7 5.8a23 23 0 0 0-3.4 9.3c-.4 3-1.7 6.7-2.9 8.3a23 23 0 0 0-3 7.5 46 46 0 0 1-3.4 10.3c-1.4 3-2.6 6.3-2.6 7.3s-.8 3.4-1.9 5.5c-1 2-2.8 6.8-4 10.7s-3 8.1-4.1 9.4a10 10 0 0 0-2 6c-.1 2-1.4 6-3 9.1a23 23 0 0 0-3 8 27 27 0 0 1-3 8.5 32 32 0 0 0-3 8c0 1.1-1.2 4.4-2.5 7.4a58 58 0 0 0-3.5 9.7 30 30 0 0 1-3.5 8c-1.4 2-2.5 5.1-2.5 6.8a27 27 0 0 1-3 9.1 32 32 0 0 0-3 8c0 1.1-1.2 4.4-2.5 7.4s-3 7.5-3.6 9.9c-.5 2.5-2.1 5.8-3.4 7.4a10 10 0 0 0-2.5 7q0 4-2.9 9.2c-1.6 2.8-3.1 7-3.5 9.3s-1.7 6.3-3.1 8.9a22 22 0 0 0-2.5 6.6c0 1.1-1.4 5-3 8.8s-3 7.7-3 8.8c0 1-1.3 3.9-3 6.3q-3 4.4-3 8c0 2.1-1.3 6-3 9.2s-3 6.6-3 7.8c0 1.1-1.4 5.1-3 8.9a38 38 0 0 0-3 8.7c0 1-.9 3.5-1.9 5.4a56 56 0 0 0-3.6 9.5c-.9 3.3-2.6 7.2-3.8 8.9a23 23 0 0 0-2.8 8.2c-.4 2.9-1.7 6.6-2.8 8.2a23 23 0 0 0-3.1 8 35 35 0 0 1-2.9 8.8c-1 2.1-2.4 5.8-3.1 8.3s-2.1 6.1-3.1 8.2-2.3 5.7-2.9 8.2c-.5 2.4-2.1 6.1-3.5 8.2s-2.5 5.1-2.5 6.8a27 27 0 0 1-3 9.1 32 32 0 0 0-3 8c0 1.1-1.2 4.4-2.5 7.4s-3 7.5-3.6 9.9c-.5 2.5-2.1 5.8-3.4 7.4a10 10 0 0 0-2.5 7.1q0 4.2-3 9.2a21 21 0 0 0-3 8 30 30 0 0 1-3 9 33 33 0 0 0-3 7.8c0 1-1.4 4.9-3 8.7s-3 7.7-3 8.8c0 1-1.3 3.9-3 6.3q-3 4.4-3 8c0 2.1-1.3 6-3 9.2s-3 6.6-3 7.8c0 1.1-1.4 5.1-3 8.9a38 38 0 0 0-3 8.7c0 1-.9 3.5-1.9 5.4a56 56 0 0 0-3.6 9.5c-.9 3.3-2.6 7.2-3.8 8.9a24 24 0 0 0-2.8 8.4c-.4 3-1.7 6.7-2.9 8.3-1.1 1.5-2.5 5-3 7.8s-1.8 6.7-2.9 8.7c-1 2.1-2.4 5.8-3.1 8.3a56 56 0 0 1-3.1 8.2 40 40 0 0 0-3 8.7c-.5 2.7-2.1 6.4-3.5 8.2a13 13 0 0 0-2.4 6.4c0 1.7-1.3 5.7-3 9s-3 7-3 8.2-1.3 5-3 8.5c-1.6 3.4-3 7.2-3 8.3s-1.2 4.4-2.5 7.4a58 58 0 0 0-3.5 9.7 30 30 0 0 1-3.5 8c-1.4 2-2.5 5.1-2.5 6.8s-1.4 5.8-3 9.1a32 32 0 0 0-3 8c0 1.1-1.2 4.4-2.5 7.4s-3 7.5-3.6 9.9c-.5 2.5-2.1 5.8-3.4 7.4a10 10 0 0 0-2.5 6.7c0 2.3-1.2 6-3 9.4-1.7 3.1-3 6.6-3 7.8 0 1.1-1.4 5.1-3 8.9s-3 7.6-3 8.5-1.4 4.7-3 8.5-3 7.7-3 8.8c0 1-1.2 3.7-2.7 5.8a23 23 0 0 0-3.4 9.3c-.4 3-1.7 6.7-2.9 8.3a23 23 0 0 0-3 7.5 46 46 0 0 1-3.4 10.3c-1.4 3-2.6 6.3-2.6 7.3s-.8 3.4-1.9 5.5c-1 2-2.8 6.8-4 10.7s-3 8.1-4.1 9.4a10 10 0 0 0-2 5.5 27 27 0 0 1-3 9.1 30 30 0 0 0-3 8.5 27 27 0 0 1-3 8.5 32 32 0 0 0-3 8c0 1.1-1.2 4.4-2.5 7.4a58 58 0 0 0-3.5 9.7 30 30 0 0 1-3.5 8c-1.4 2-2.5 5.1-2.5 6.8a27 27 0 0 1-3 9.1 32 32 0 0 0-3 8c0 1.1-1.2 4.4-2.5 7.4s-3 7.5-3.6 9.9c-.5 2.5-2.1 5.8-3.4 7.4a10 10 0 0 0-2.5 7q0 4-2.9 9.2c-1.6 2.8-3.1 7-3.5 9.3s-1.7 6.3-3.1 8.9a22 22 0 0 0-2.5 6.6c0 1.1-1.4 5-3 8.8s-3 7.7-3 8.8c0 1-1.3 3.9-3 6.3q-3 4.4-3 7.9a29 29 0 0 1-2.9 9.5 72 72 0 0 0-3.9 10c-.5 2.2-1.9 6.2-3 9l-3.2 8.5-2.9 7.8q-1.7 4.3-.6 5.7c.9 1.4 34.1 1.6 308.4 1.5 244.8 0 307.7-.2 308.9-1.2 1.9-1.6 3.8-6.2 5.2-12.5.6-2.6 2.1-5.8 3.2-7.1q2.2-2.2 2.8-8 .8-5.7 3.4-9.6t2.6-7.6c0-2.2 1.2-6 2.9-9.1 1.5-3 3.1-7.4 3.5-9.9a22 22 0 0 1 2.3-7c.9-1.4 2.4-5.2 3.4-8.5a254 254 0 0 1 8.5-24.5c1.3-3 2.8-7.7 3.4-10.5s2.1-6 3.2-7.3q2.2-2.2 2.8-8 .8-5.7 3.4-9.6t2.6-7.6c0-2.2 1.2-6 2.9-9.1 1.5-3 3.1-7.3 3.5-9.6s1.7-6.3 3.1-8.9 2.5-5.8 2.5-7.1c0-1.4 1.4-5.5 3-9.3s3-7.6 3-8.5c0-.8.9-3.4 2-5.5 1.1-2.2 2.8-6.8 3.6-10.3.9-3.4 2.5-7.2 3.7-8.5q2-2.3 2.7-8t3.4-9.6q2.5-3.9 2.6-7.6c0-2.2 1.2-6 2.9-9.1 1.5-3 3.1-7.3 3.5-9.6s1.7-6.3 3.1-8.9 2.5-5.8 2.5-7.1c0-1.4 1.3-5.5 3-9.3a44 44 0 0 0 3-8.7c0-1 .9-3.5 2-5.6a46 46 0 0 0 3.6-10c.9-3.4 2.5-7.2 3.7-8.5q2-2.3 2.7-8t3.4-9.6q2.5-3.9 2.6-7.6c0-2.2 1.2-6 2.9-9.1 1.5-3 3.1-7.3 3.5-9.6s1.7-6.3 3.1-8.9 2.5-5.8 2.5-7.1c0-1.4 1.4-5.5 3-9.3a38 38 0 0 0 3-8.7c0-1 .9-3.5 2-5.6a46 46 0 0 0 3.6-10c.9-3.4 2.5-7.2 3.7-8.5q2-2.2 2.8-8.1t3.3-9.7c1.6-2.4 2.6-5.2 2.6-7.5 0-2.1 1.2-5.9 2.9-9 1.5-3 3.1-7.3 3.5-9.6s1.7-6.3 3.1-8.9 2.5-5.8 2.5-7.1c0-1.4 1.3-5.5 3-9.3a44 44 0 0 0 3-8.7c0-1 .9-3.5 2-5.6a46 46 0 0 0 3.6-10c.9-3.4 2.5-7.2 3.7-8.5q2-2.3 2.8-8.1t3.3-9.7c1.6-2.4 2.6-5.2 2.6-7.5 0-2.1 1.3-6 3-9.2s3-7 3-8.5c0-1.6 1.1-5 2.5-7.7 1.4-2.6 3.1-7 3.7-9.9.6-2.8 2.5-8 4.2-11.6l3.2-6.5 526.4-.3c374.1-.1 527.3.1 529.1.9 2.6 1 4.9 4.6 4.9 7.5 0 .9 1.3 4.6 3 8.4s3 7.6 3 8.5 1.4 4.7 3 8.5a40 40 0 0 1 3 9.2c0 1.3 1.4 5 3 8.3s3 7.3 3 9c0 1.6 1.4 5.2 3 8q3 5 3 9.1t2.4 7.3a27 27 0 0 1 3.7 8.4c.7 2.9 2.3 7.4 3.5 10.2s2.4 5.8 2.4 6.8 1.3 4.9 3 8.7 3 7.6 3 8.5 1.4 4.7 3 8.5 3 7.9 3 9.2 1.4 5 3 8.3a27 27 0 0 1 3 8.7 24 24 0 0 0 3 8.5c1.8 3.3 3 7.1 3 9.2q0 3.7 2.4 7a27 27 0 0 1 3.7 8.4c.7 2.9 2.3 7.4 3.5 10.2s2.4 5.8 2.4 6.8 1.4 4.9 3 8.7 3 7.6 3 8.5 1.4 4.7 3 8.5 3 7.9 3 9.2 1.4 5 3 8.3a27 27 0 0 1 3 8.7 24 24 0 0 0 3 8.5c1.8 3.3 3 7.1 3 9.2q0 3.7 2.4 7a27 27 0 0 1 3.7 8.4c.7 2.9 2.3 7.4 3.5 10.2s2.4 5.8 2.4 6.8 1.4 4.9 3 8.7 3 7.6 3 8.5 1.4 4.7 3 8.5a40 40 0 0 1 3 9.2c0 1.3 1.4 5 3 8.3a27 27 0 0 1 3 8.7 24 24 0 0 0 3 8.5c1.8 3.3 3 7.1 3 9.2q0 3.7 2.4 7a27 27 0 0 1 3.7 8.4c.7 2.9 2.3 7.4 3.5 10.2s2.4 5.8 2.4 6.8 1.3 4.9 3 8.7 3 7.6 3 8.5 1.4 4.7 3 8.5a40 40 0 0 1 3 9.2c0 1.3 1.4 5 3 8.3a27 27 0 0 1 3 8.7 24 24 0 0 0 3 8.5c1.8 3.3 3 7.1 3 9.2q0 3.7 2.4 7a27 27 0 0 1 3.7 8.4c.7 2.9 2.3 7.4 3.5 10.2s2.4 5.8 2.4 6.8 1.4 4.9 3 8.7 3 7.6 3 8.5 1.3 4.7 3 8.5 3 7.9 3 9.2 1.4 5 3 8.3a27 27 0 0 1 3 8.7 24 24 0 0 0 3 8.5 23 23 0 0 1 3 9.3c0 2.2.8 4.8 2 6.3a22 22 0 0 1 3.2 6.3c.7 2.1 2.3 4.3 3.5 5 1.3.6 3.1 1.8 4.1 2.7 1.7 1.6 24 1.7 317.3 1.7l315.4.1 1.8-2.8c2.2-3.5 1.6-8.5-1.9-16.3-1.4-3-2.9-7.6-3.4-10.3-.5-2.6-1.9-6-3-7.5a21 21 0 0 1-2.9-8.3c-.4-3-1.7-6.8-2.8-8.4a35 35 0 0 1-3.8-9c-.9-3.3-2.5-7.6-3.6-9.7-1-2-1.9-4.5-1.9-5.5s-1.2-4.3-2.6-7.3a46 46 0 0 1-3.4-10.3c-.5-2.6-1.9-6-3-7.5a21 21 0 0 1-2.9-8.3c-.4-3-1.7-6.8-2.8-8.4a35 35 0 0 1-3.8-9c-.9-3.3-2.5-7.6-3.6-9.7a19 19 0 0 1-1.9-5.3c0-.9-1.3-4.7-3-8.5a40 40 0 0 1-3-9.2c0-1.3-1.4-5-3-8.3s-3-7.3-3-9-1.1-4.6-2.5-6.5c-1.4-1.8-2.8-5-3.1-6.9s-1.9-6.6-3.5-10.3a46 46 0 0 1-2.9-7.8 47 47 0 0 0-3-8 40 40 0 0 1-3-9.2c0-1.3-1.4-5-3-8.3a27 27 0 0 1-3-9.1 16 16 0 0 0-2.6-7 22 22 0 0 1-3.3-9.5c-.5-4-1.5-6.6-3.4-8.8a12 12 0 0 1-2.7-5.9c0-1.5-1.4-5.6-3-9a32 32 0 0 1-3-8.5c0-1.2-1.4-4.9-3-8.2a27 27 0 0 1-3-9.1 16 16 0 0 0-2.6-7 23 23 0 0 1-3.4-9.6q-.6-5.8-2.8-8a20 20 0 0 1-3.1-6.9c-.6-2.5-2.2-7-3.6-10s-2.5-6.3-2.5-7.4-1.1-4-2.4-6.5-2.9-7-3.5-10.1-2.3-7.1-3.6-9q-3.7-4.9-1.9-9.3c1-2.7 3.8-1.8 5.9 1.8 2.8 4.7 9.6 13.7 17.4 22.7l11.5 13.9 8.5 10 20.1 21.5c9.1 9.7 24.4 25.1 34.1 34.3 28.4 27 30 28.4 40.4 36.7 2.1 1.6 8.5 7 14.4 12l13.3 11 10.4 8c10.7 8.3 14.3 11 18.9 14.1l9.4 6.8a140 140 0 0 0 13.2 9.3c1.9 1.2 5 3.3 6.9 4.8a80 80 0 0 0 13.5 8.8 16 16 0 0 1 4.4 3.1 24 24 0 0 0 6 4.2q9.7 5.2 14.5 9.1c1.6 1.3 3.4 2.3 4.2 2.3.7 0 2.5 1.1 4.1 2.4s4.4 3.1 6.3 4c5 2.4 12.5 6.8 14.7 8.7 1 .9 3.5 2.2 5.5 2.8 2 .7 4.2 1.9 4.9 2.8a27 27 0 0 0 6.4 3.9 1834 1834 0 0 0 88.7 44.5c3.1 1.6 6.4 2.9 7.3 2.9a19 19 0 0 1 5.8 2.4 56 56 0 0 0 8.1 3.6 41 41 0 0 1 7 3.1 39 39 0 0 0 7.6 2.9c2.5.7 5.6 2 7 3s4 2.1 5.9 2.5 6.1 2 9.5 3.6a33 33 0 0 0 7.9 2.9c1 0 3.9 1.1 6.5 2.3 2.6 1.3 7 3 9.7 3.7 2.8.7 6.4 2.1 8 3 1.7 1 5.4 2.3 8.3 2.9s6.9 1.9 9 3c2 1 6.1 2.4 9 3s6.9 1.9 9 2.9 6.4 2.4 9.7 3.2c3.3.7 7.2 1.9 8.7 2.6s6.2 2.2 10.5 3.3 10.4 2.8 13.5 4a33 33 0 0 0 8.3 2.1 40 40 0 0 1 8.9 2.4 64 64 0 0 0 11.3 3.2 86 86 0 0 1 12.3 3 123 123 0 0 0 14 3.4c3.6.5 9.3 1.9 12.7 3 3.4 1 8.6 2.2 11.5 2.5 2.9.4 9.4 1.7 14.3 3s12.8 2.9 17.5 3.5 11.7 2 15.5 3 10.2 2.2 14 2.5c3.9.4 12.4 1.7 19 3.1a291 291 0 0 0 23 3.4c6 .5 15.9 1.9 22 3 6 1 17.5 2.4 25.5 3s21.3 1.9 29.5 3c8.3 1 21.5 2.2 29.5 2.5s27.3 1.4 43 2.3c40.1 2.3 120.8 2.3 162-.1 53.5-3.1 62.3-3.7 72-5.2 5.2-.8 16-1.9 24-2.5s19-2 24.5-3.1c5.5-1 14.9-2.4 20.9-2.9s14.8-1.9 19.5-3c4.7-1 12.7-2.4 17.6-3s12.4-1.9 16.5-3c4.1-1 12-2.6 17.5-3.4a99 99 0 0 0 14.5-3.1c2.5-.9 7.8-2 11.7-2.6a86 86 0 0 0 13-3c3.2-1.1 8.9-2.4 12.8-3 3.8-.6 9.1-1.9 11.6-2.9s7.5-2.4 11-3 8.7-2 11.4-3c2.8-1.1 7.9-2.6 11.5-3.4a186 186 0 0 0 12.8-3.5l12.5-4.2 14.2-4.4q16.7-5 26.5-9c3-1.3 7.1-2.6 9-3a43 43 0 0 0 8.2-3.1c2.6-1.3 5.6-2.4 6.6-2.4s4.1-1.1 6.8-2.5 7.3-3.2 10.2-4c2.9-.9 6.7-2.5 8.5-3.5 1.8-1.1 4.1-2 5.1-2a17 17 0 0 0 6-2.4c2.3-1.3 5.2-2.7 6.6-3.1 3.4-1 17.5-7.1 23-9.9 2.5-1.3 5.8-2.6 7.4-3s4.5-1.8 6.5-3.2c1.9-1.3 4.1-2.4 4.8-2.4s4.1-1.5 7.6-3.2l8.8-4.4c2.3-1 5-2.4 12.2-6.1l7.2-3.6c2.2-1 4.7-2.3 5.5-2.8s3.9-2.1 6.9-3.5 6.6-3.4 7.9-4.5c1.4-1 3.2-1.9 4.2-1.9s3-1 4.6-2.3 5-3.3 7.6-4.7a306 306 0 0 0 25.3-14.6c1.7-1.2 4-2.5 5.2-2.8 1.2-.4 3.8-2 5.8-3.6 2.1-1.7 4.2-3 4.7-3s2.3-1.1 4-2.5c1.6-1.4 3.5-2.5 4.1-2.5a19 19 0 0 0 5.6-3.5c2.4-1.9 4.8-3.5 5.3-3.5s2.3-1 3.8-2.2 4-3.1 5.6-4c5.1-3.1 19-12.5 25.8-17.6l6.6-4.7a1012 1012 0 0 0 75.5-61 878 878 0 0 0 133-149.6c4.7-7.6 6.1-9.6 8.3-11.7 1.2-1.2 2.2-2.7 2.2-3.3 0-1.3 8.7-14.6 10-15.4.5-.3 1.9-2.5 3-4.8s3.3-6.2 5-8.7c3.1-4.8 7.1-11.5 10.8-18.3 1.2-2.3 3-5.3 4.1-6.7s2.8-4.5 4-7c4.1-8.5 6.2-12.5 7.1-14 .5-.8 3.3-6.2 6.1-12l7.4-15a63 63 0 0 0 3-7c.4-1.4 1.6-3.6 2.5-5 1-1.4 2.3-4.3 2.9-6.5s1.7-4.9 2.4-6c.8-1.1 2.2-4.5 3.2-7.5s2.5-6.9 3.5-8.5c1-1.7 2.4-5 3-7.5s2-6.1 3-8 2.1-5.1 2.5-7a38 38 0 0 1 2.6-7.6c1.1-2.3 2.8-7 3.9-10.5l4-12.9c6.7-20.8 8-25.1 8-27 0-1.1 1.1-5.2 2.5-9.2s2.9-10.2 3.5-13.8 2-9.2 3-12.5 2.4-9.6 3-14 1.9-11.2 3-15c1-3.9 2.2-10.2 2.5-14 .4-3.9 1.7-13.1 3-20.5s2.9-20.3 3.5-28.5c.6-8.3 1.8-20.6 2.6-27.5 3.6-28.7 3.3-106.7-.4-146.5l-3.1-34.6c-.6-6.9-1.7-15.6-2.5-19.5-.8-3.8-2-11.6-2.6-17.4s-1.9-13.9-3-18c-1-4.1-2.4-11.3-3-16s-2-11.2-3-14.5a99 99 0 0 1-3.1-13c-.7-3.9-2.3-10.1-3.5-13.9a49 49 0 0 1-2.4-8.9c0-1-1.3-5.8-2.9-10.5l-3.9-12.7c-1.4-5.2-4.9-15.6-7.4-22l-3.5-9.5a91 91 0 0 0-3.9-9.5 30 30 0 0 1-2.4-6.2c0-1.1-4.6-11.7-9.5-21.8-1.4-2.8-3.1-6.6-3.9-8.5l-3-6a360 360 0 0 0-26.1-46.5l-4-6.5-4.1-5.9a784 784 0 0 0-30.9-41.7 713 713 0 0 0-92.2-93.9 829 829 0 0 0-39.8-31.8 46 46 0 0 0-6-4.1 587 587 0 0 0-49.5-32.2c-3-1.9-6-3.4-6.6-3.4q-1.1-.1-2.5-1.6c-.7-.9-3.8-2.8-6.8-4.3l-11.6-6.1c-3.3-1.8-7.8-4.2-10-5.2l-5.5-2.9c-.8-.5-3.5-1.9-6-3l-7-3.5c-1.4-.8-3.4-1.8-4.5-2.1s-4.7-2.1-8-3.8a51 51 0 0 0-8.9-3.9c-1.6-.4-4.1-1.6-5.4-2.7a10 10 0 0 0-4.2-1.9c-.9 0-3.9-1.2-6.6-2.6a71 71 0 0 0-9.7-4 59 59 0 0 1-9.4-4 21 21 0 0 0-6.7-2.4c-1.2 0-3.5-.9-5.3-1.9a36 36 0 0 0-8.5-3.5c-2.9-.9-7.1-2.5-9.3-3.5a96 96 0 0 0-10-3.9c-9.1-3-15.4-5.3-21.6-7.9a64 64 0 0 0-9-2.9c-1.9-.4-5-1.5-7-2.5s-6.8-2.7-10.5-3.8c-6.5-1.9-13-4-25.4-8.3-3-1.1-8.8-2.8-12.7-3.8-4-1.1-8.5-2.6-10-3.4a42 42 0 0 0-8.5-2.5c-3.2-.5-7.1-1.7-8.7-2.6-1.7-.8-6.1-2.2-9.8-3s-9.9-2.6-13.8-3.9c-3.8-1.4-8-2.6-9.2-2.6s-5.2-1.1-9-2.4a203 203 0 0 0-14.8-4.4 968 968 0 0 1-30.9-8.3c-5.4-1.6-11-2.9-12.3-2.9a46 46 0 0 1-9.2-2.4c-3.8-1.3-10-2.9-13.8-3.5-3.7-.6-9.4-1.9-12.4-3-3.1-1-8.8-2.4-12.5-3-3.8-.6-9.5-1.9-12.6-3a66 66 0 0 0-11.5-2.7c-3.2-.4-9.3-1.7-13.6-3s-11.4-2.8-15.7-3.4c-4.4-.6-9.9-1.8-12.2-2.6-2.4-.8-8.5-2.1-13.8-3-5.2-.8-12.6-2.3-16.5-3.4-3.8-1-10.5-2.4-14.7-2.9s-10.9-1.9-14.7-3-9.6-2.2-12.8-2.6a121 121 0 0 1-22.7-4.7 54 54 0 0 0-11.7-1.9 76 76 0 0 1-17.2-3.4 49 49 0 0 0-12.8-2.5c-6.2 0-16-2.2-20.4-4.4a23 23 0 0 0-9.5-1.6c-4 0-11-1.2-18-3-6.3-1.6-13.3-3-15.5-3s-8-1.2-13-2.6c-4.9-1.3-12.5-2.9-16.7-3.4a96 96 0 0 1-14.7-3c-3.8-1.1-10.5-2.5-15-3s-9.9-1.7-12.3-2.6c-2.4-.8-8.7-2.2-14-3a133 133 0 0 1-16-3.4c-3.5-1-8.8-2.2-11.8-2.5-3-.4-9.4-1.8-14.2-3.1s-11.7-2.8-15.5-3.4c-3.8-.5-8.9-1.6-11.3-2.5s-8.5-2.3-13.5-3.1a141 141 0 0 1-15-3.5c-3.3-1-9-2.3-12.6-2.9-3.6-.5-9-1.8-12.1-2.9s-8.7-2.4-12.7-3c-3.9-.6-9.3-2-12-3.1-2.7-1-7.3-2.2-10.3-2.6a85 85 0 0 1-12.3-3.1 104 104 0 0 0-13.3-3.4c-3.6-.5-8.5-2.1-11.1-3.4a20 20 0 0 0-9.1-2.5 36 36 0 0 1-10.5-2.5 70 70 0 0 0-11.9-3.6c-3.3-.6-8-2.1-10.5-3.5a21 21 0 0 0-7.6-2.4c-1.6 0-5-.9-7.4-2a80 80 0 0 0-10.5-3.6c-3.3-.8-7.5-2.4-9.2-3.4s-4.7-2.1-6.5-2.5c-1.9-.4-6.2-2-9.7-3.6a36 36 0 0 0-7.7-2.9c-.9 0-4.1-1.4-7.2-3s-6.2-3-6.9-3-3.5-1.1-6.1-2.5l-20.6-10.2c-22.2-11-25-12.5-28.2-15.1a10 10 0 0 0-4-2.2c-.6 0-2.9-1.3-5.1-3s-4.2-3-4.5-3c-1.7 0-17.1-10.8-22-15.3a156 156 0 0 1-25.1-20 211 211 0 0 1-37-45.5 180 180 0 0 1-13.8-28.9 45 45 0 0 1-3.5-9.8c-.8-3.6-2.1-7.9-3-9.4a44 44 0 0 1-2.5-9.7c-.6-3.8-2-11-3.3-15.9-2.1-8.6-2.2-10.9-2.2-51 0-39.6.2-42.5 2.2-51 1.2-5 2.7-12.6 3.2-17s2.2-11.2 3.6-15 2.5-8 2.5-9.3a40 40 0 0 1 3-9.2c1.7-3.8 3-7.6 3-8.5 0-1.8 3.5-9.6 11.8-26.4 5.8-11.6 7.9-15.3 15.9-27.1 4.3-6.4 5.4-7.9 14.2-19.6 5.3-6.9 32.8-34.5 38-38 4-2.7 8-5.7 17-12.7 3.4-2.6 6.7-4.7 7.3-4.7.7 0 2.4-1.2 4-2.7q4.8-4.7 14.5-9.3c2.3-1.1 4.5-2.5 4.8-3.1.4-.5 2.8-2 5.3-3.3a524 524 0 0 1 43.9-21.2c2.3-1.3 5-2.4 6-2.4s4.6-1.3 8-3 8-3.2 10-3.6a54 54 0 0 0 8.8-3c2.7-1.3 5.8-2.4 6.8-2.4a63 63 0 0 0 10.5-2.9c4.8-1.6 10.7-3.3 13.1-3.7 2.5-.3 7-1.5 10-2.6 3.1-1 9-2.3 13.1-2.9s10.7-1.9 14.5-2.9c3.9-1.1 12.9-2.6 20-3.4 7.2-.9 16.4-2.2 20.5-3.1s23.3-2.4 42.5-3.6a733 733 0 0 1 67-1.6c36.5.6 75.9 3 86.7 5.3 4 .8 12.7 2.2 19.3 2.9a156 156 0 0 1 19 3.4c3.9 1.1 10.6 2.5 15 3.1s10 2 12.5 3 7.6 2.3 11.4 2.9 8.2 1.9 9.7 2.7c1.6.8 5.8 2.1 9.4 2.9 3.6.9 8.5 2.4 10.8 3.4a111 111 0 0 0 10.2 3.9 212 212 0 0 1 22 8.2l11 5a510 510 0 0 1 47.1 24.5c2.7 1.9 5.2 3.5 5.5 3.5.4 0 3.3 1.8 6.5 4l13.4 9.2c4.1 2.8 9 6.4 10.8 7.9 1.8 1.6 3.6 2.9 4 2.9s3.3 2.5 6.4 5.5 6.8 6 8.2 6.7c8.2 4.4 51.7 49 61.2 62.8l6.4 8.5c3.5 4.3 14.7 20.7 21.6 31.5 3.4 5.4 12.6 22.6 17.3 32.5l6.6 13.5c1.2 2.5 2.8 6.3 3.5 8.5a41 41 0 0 0 3.1 7 11 11 0 0 1 1.9 4.8c0 1 1.3 4.9 2.9 8.5 1.6 3.7 3.2 8.3 3.6 10.2a85 85 0 0 0 3.1 9.7c1.3 3.4 2.4 7 2.4 8.1s1.3 6.2 2.9 11.3 3.1 11.7 3.5 14.5c.3 2.7 1.7 9.4 3.1 14.8a79 79 0 0 1 2.5 14.1c0 7.5 2.9 23.8 4.5 25.4 1.4 1.4 30.7 1.6 291.8 1.8 234.9.2 290.7 0 292.7-1 2.4-1.2 2.5-1.6 2.2-9.2-.1-4.4-.9-17.7-1.7-29.5l-2-32.5c-.4-6.1-1.5-16-2.6-22.1-1-6.2-2.4-15.8-3-21.5-.5-5.7-2.1-15.2-3.5-21.1s-2.4-12.2-2.5-14c0-1.8-.9-6.5-2-10.3-1-3.9-2.8-11.6-3.9-17.3a70 70 0 0 0-3.1-12.3c-.6-1.2-1.9-6-2.9-10.8-1-4.7-2.8-11.2-3.9-14.3a33 33 0 0 1-2.1-7.9c0-1.1-1.2-5-2.6-8.6a100 100 0 0 1-3.9-11.7c-.7-2.8-2.2-7.4-3.3-10.1l-3.7-10c-3.8-11-7.3-20.2-8.9-23-.9-1.7-1.6-3.7-1.6-4.6 0-1-1.3-4.3-3-7.4a34 34 0 0 1-3-7c0-.7-1.3-3.6-2.9-6.6s-3.1-6.7-3.5-8.3-1.6-4.2-2.7-5.7a768 768 0 0 0-44.9-83.5c0-.6-.7-1.7-1.5-2.4a84 84 0 0 1-10.5-15.7c0-.5-1.2-2.2-2.7-4-2.7-3-4.1-5-9.3-13.9a159 159 0 0 0-7.7-11.1c-2.9-3.7-6.2-8.3-7.5-10.1s-3.6-5-5.3-7.1l-9-11.6a994 994 0 0 0-103-110.4 306 306 0 0 1-12.5-11c-2-2.1-8.2-7.5-14.4-12.6-2.7-2.2-6.2-5.1-7.7-6.5a93 93 0 0 0-6.9-5.5l-11.5-9c-4.1-3.3-9.1-7.3-11.2-8.8-6.6-5-22.7-16.6-25.8-18.7l-6.5-4.5-16.5-11.2c-4.7-3.2-16.6-11-19.6-12.8l-8.3-5.2a109 109 0 0 0-8.3-4.8c-1.7-.8-3.5-2-3.9-2.6s-2.7-2-5.3-3.1a35 35 0 0 1-6.5-3.7c-1-.9-3.5-2.5-5.7-3.6a519 519 0 0 1-26.9-15c-.8-.7-3.2-1.8-5.2-2.4a13 13 0 0 1-4.8-2.6 13 13 0 0 0-4.8-2.6c-2-.6-5-2.1-6.7-3.3-1.6-1.2-5.1-3-7.7-4-2.5-.9-5.2-2.3-5.8-3.1-.6-.7-2.6-1.7-4.3-2.1-1.8-.3-4.4-1.5-5.9-2.5a31 31 0 0 0-6.8-3.4c-2.3-.8-5.5-2.6-7.2-4a10 10 0 0 0-5.5-2.5 17 17 0 0 1-6.7-2.4 52 52 0 0 0-8.1-3.6 33 33 0 0 1-6.5-3c-1.4-1-4.5-2.3-7-3s-5.6-2-7-3-3.8-2-5.5-2.4c-1.6-.4-5.8-2.1-9.3-3.7a34 34 0 0 0-7.8-2.9c-.9 0-3.7-1.1-6.3-2.4a89 89 0 0 0-10.6-4.4c-9.7-3.2-15.6-5.4-21.5-7.8-3-1.3-7.7-2.8-10.4-3.4a44 44 0 0 1-8-2.7 63 63 0 0 0-9.6-3.4c-3.6-.9-9.4-2.7-13-3.9a240 240 0 0 0-24.6-7.5 187 187 0 0 1-13.6-3.9 48 48 0 0 0-9.8-2.6 45 45 0 0 1-9.3-2.5c-4-1.3-10.2-2.9-13.8-3.4s-9-1.9-12.1-3a84 84 0 0 0-13.3-3.1c-4.3-.6-9.6-1.8-11.9-2.6-2.2-.8-8.6-2.2-14.1-3s-13.1-2.3-17-3.4c-3.8-1-11.1-2.3-16-2.9s-13.1-2-18-3.1c-5-1-14-2.4-20-3-6.1-.5-15.5-1.9-21-2.9-5.5-1.1-16.7-2.5-25-3.1-8.2-.6-19.3-1.7-24.5-2.5-25-3.9-150.5-8.7-180.5-6.9m-2141.1 678.8c2 4.7 3.6 9.2 3.6 10.1s1.4 4.7 3 8.5 3 7.9 3 9.2 1.4 5 3 8.3a27 27 0 0 1 3 8.7c0 1.6 1.4 5.4 3 8.5a23 23 0 0 1 3 9.3q.1 3.7 2.6 7.6a23 23 0 0 1 3.4 9.4c.4 3.4 1.6 6.9 3.2 9.2 1.4 2 2.8 5.5 3.2 7.6.3 2.2 1.7 6.4 3.1 9.3s2.5 6.2 2.5 7.2 1.4 4.9 3 8.7 3 7.6 3 8.5 1.4 4.7 3 8.5 3 7.9 3 9.2 1.2 4.5 2.6 7.1c1.4 2.7 2.9 7.3 3.4 10.2a23 23 0 0 0 3 8.3c1.2 1.6 2.5 5.4 2.9 8.6.5 3.3 1.7 6.9 3.1 8.8s2.5 5.2 2.9 8.8a18 18 0 0 0 2.8 8.3 25 25 0 0 1 3.4 8 82 82 0 0 0 3.5 10.2c1.3 2.7 2.4 5.8 2.4 6.8s1.4 4.9 3 8.7 3 7.6 3 8.5 1.4 4.7 3 8.5 3 7.9 3 9.3c0 1.3 1.1 4.5 2.4 7 1.4 2.5 2.9 7.1 3.5 10.1a26 26 0 0 0 3.1 8.4c1.2 1.6 2.5 5.3 2.9 8.3s1.9 7.5 3.4 10q2.6 4.5 2.7 8.6 0 4 2.2 6.8c1.1 1.5 2.9 5.5 3.8 8.9 1 3.3 2.7 8.3 3.8 11.1l3.6 9.7c3.4 10.2 5 14.6 7.7 22 1.6 4.2 2.9 8.5 2.9 9.4a27 27 0 0 0 2.5 7c1.4 3 3 7.5 3.5 10.1a42 42 0 0 0 3.5 9.7c1.4 2.7 2.5 6.2 2.5 7.8s1.4 5.4 3 8.5c1.8 3.3 3 7.1 3 9.2q0 3.7 2.4 7c1.4 1.8 3 5.5 3.5 8.2.6 2.8 1.9 6.6 3 8.7 1 2 2.6 6.6 3.5 10.2s2.3 7.5 3.1 8.7 2 4.6 2.6 7.4 2.2 7.5 3.5 10.3 2.4 5.9 2.4 6.9 1.4 4.9 3 8.7 3 7.9 3 9.2 1.4 5 3 8.3a27 27 0 0 1 3 8.7c0 1.6 1.4 5.4 3 8.5 1.8 3.3 3 7.1 3 9.2q0 3.7 2.5 7c1.3 1.9 2.9 5.7 3.5 8.6s1.9 6.7 2.9 8.6 2.6 6.3 3.5 9.7a57 57 0 0 0 3.6 10.2 18 18 0 0 1 2 6c0 1.2 1.4 5.2 3 9s3 7.6 3 8.5 1.4 4.7 3 8.5 3 7.9 3 9.2 1.4 5 3 8.3a27 27 0 0 1 3 8.7c0 1.6 1.4 5.4 3 8.5 1.7 3.2 3 7.1 3 9.2 0 2.3 1 5.1 2.6 7.5q2.6 3.9 3.3 9.7.7 5.9 2.9 8.1c1.1 1.3 2.6 4.5 3.2 7.1.6 2.7 2.2 7.5 3.5 10.8 1.4 3.2 2.5 6.6 2.5 7.5 0 .8 1.4 4.6 3 8.4s3 7.6 3 8.5 1.4 4.7 3 8.5 3 7.9 3 9.2 1.4 5 3 8.3a27 27 0 0 1 3 8.7c0 1.6 1.4 5.4 3 8.5a23 23 0 0 1 3 9.3q.1 3.7 2.6 7.6a23 23 0 0 1 3.4 9.4c.4 3.5 1.6 6.9 3.3 9.4 1.5 2.1 2.7 4.8 2.7 5.8 0 1.1 1.4 5.3 3 9.5a46 46 0 0 1 3 9c0 .8 1.4 4.5 3 8.3s3 7.6 3 8.5 1.4 4.7 3 8.5 3 7.9 3 9.2 1.4 5 3 8.3a27 27 0 0 1 3 8.7c0 1.6 1.4 5.4 3 8.5a23 23 0 0 1 3 9.3q.1 3.7 2.6 7.6 2.6 4 3.3 9.5c.4 3.3 1.5 6.6 2.8 8.2a25 25 0 0 1 3.4 8 82 82 0 0 0 3.5 10.2c1.3 2.7 2.4 5.8 2.4 6.8s1.4 4.9 3 8.7 3 7.6 3 8.5 1.4 4.7 3 8.5 3 7.9 3 9.3c0 1.3 1.1 4.5 2.4 7 1.4 2.5 2.9 7 3.5 10a28 28 0 0 0 3.5 9.2c3 4.4 3.1 5.3 1 8.3l-1.5 2.2h-362.6c-336 0-362.8-.1-364.5-1.7q-3.8-3.6.8-9.2 2.5-3 3.4-9c.4-3.3 2-7.9 3.4-10.4a19 19 0 0 0 2.6-7.3 27 27 0 0 1 3-8.9c1.6-3.3 3-7 3-8.3a40 40 0 0 1 3-9.2c1.7-3.8 3-7.6 3-8.5s1.3-5.1 2.9-9.3c2.7-7.3 4-11 7.7-22l4-11c1.3-3.4 2.9-8.3 3.4-10.9s2.2-5.9 3.5-7.5c1.9-2.2 2.5-4.1 2.5-7.7s.7-5.8 2.7-8.7q2.6-4 3.3-9.4a23 23 0 0 1 3.4-9.4q2.5-3.9 2.6-7.6c0-2.2 1.2-6 3-9.3a24 24 0 0 0 3-8.5c0-1.6 1.1-5.1 2.5-7.8s3-7 3.5-9.7a53 53 0 0 1 3.5-10.1c1.4-2.9 2.5-6.3 2.5-7.5s1.4-5.3 3-9.1 3-7.6 3-8.5 1.4-4.7 3-8.5 3-7.6 3-8.4 1.1-4.3 2.5-7.5 2.9-8.1 3.5-10.7 2.2-6 3.5-7.6c1.9-2.2 2.5-4.1 2.5-7.7s.7-5.8 2.7-8.7q2.6-4 3.3-9.4a23 23 0 0 1 3.4-9.4q2.5-3.9 2.6-7.6c0-2.2 1.2-6 3-9.3a24 24 0 0 0 3-8.5c0-1.6 1.1-5.1 2.5-7.8s3-7.3 3.6-10.2 2.1-7.4 3.5-9.9 2.4-5.7 2.4-7c0-1.4 1.4-5.5 3-9.3s3-7.6 3-8.5 1.4-4.7 3-8.5a36 36 0 0 0 3-9c0-1.2 1.1-4.6 2.5-7.6s3-7.5 3.5-10 1.9-6.2 2.9-8.2c1-2.1 2.4-6.1 3.1-8.9a23 23 0 0 1 3.3-8 18 18 0 0 0 2.8-8.3q.7-5.7 3.3-9.6c1.6-2.4 2.6-5.2 2.6-7.5 0-2.1 1.3-6 3-9.2a24 24 0 0 0 3-8.5c0-1.6 1.1-5.1 2.5-7.8s3.1-7.4 3.6-10.4 2.2-7.5 3.5-10c1.3-2.4 2.4-5.5 2.4-6.8a40 40 0 0 1 3-9.2 38 38 0 0 0 3-8.7c0-1 1.1-4.2 2.5-7.1s2.7-6.9 3.1-9 1.9-6.7 3.5-10.4c1.6-3.6 2.9-7.5 2.9-8.5s1.1-4.2 2.5-7.2c1.4-2.9 2.8-7.1 3.1-9.3.4-2.1 1.8-5.6 3.2-7.6 1.6-2.3 2.8-5.8 3.3-9.5q.7-5.7 3.3-9.6c1.6-2.3 2.6-5.1 2.6-7.3a22 22 0 0 1 2.7-8.4c1.4-2.7 3-7.3 3.4-10.3s1.7-6.7 2.9-8.3a23 23 0 0 0 3-8.3c.5-2.9 2-7.5 3.4-10.2s2.6-5.8 2.6-7.1a40 40 0 0 1 3-9.2c1.7-3.8 3-7.6 3-8.5s1.3-5.1 2.9-9.3c2.7-7.3 4.4-12.2 7.8-22.2l3.9-10.8c1.3-3.4 2.9-8.4 3.5-11 .5-2.6 2-5.7 3.1-7q2.2-2.2 2.9-8.3.8-6 3.3-9.8 2.6-3.7 2.6-7.7t3-8.9c1.8-3 3-6.4 3-8.6s1.3-6 3-9.2a24 24 0 0 0 3-8.5 27 27 0 0 1 3-8.7c1.6-3.3 3-7 3-8.3a40 40 0 0 1 3-9.2 36 36 0 0 0 3-9c0-1.2 1.4-5.2 3-9s3-7.6 3-8.5 1.4-4.7 3-8.5 3-7.6 3-8.4 1.1-4.3 2.5-7.5 2.9-8.1 3.5-10.7 2.2-6 3.5-7.6c1.9-2.2 2.5-4.1 2.5-7.7s.7-5.8 2.7-8.7c1.7-2.5 2.9-5.9 3.3-9.4a23 23 0 0 1 3.4-9.4q2.5-3.9 2.6-7.6c0-2.2 1.2-6 3-9.3a24 24 0 0 0 3-8.5c0-1.6 1.1-5.1 2.5-7.8s3-7 3.5-9.7a53 53 0 0 1 3.5-10.1c1.4-2.9 2.5-6.4 2.5-7.7s1.1-4.7 2.4-7.4 2.6-6.8 3-9c1.1-6.5 1.6-7.5 3.5-7.5 1.4 0 2.8 2.3 5.5 8.4M4548 2610.5c2.6 3.2-1.3 8.1-4.7 5.9s-2.3-7.4 1.7-7.4c1 0 2.3.7 3 1.5"/><path fill="#ea1a20" d="M5460.5 2590c-3.8.5-13.7 1.3-22 2-8.2.6-19.3 2.2-24.5 3.5a182 182 0 0 1-14.5 3c-2.7.3-9.2 2-14.3 3.6a73 73 0 0 1-11.3 2.9c-1.1 0-3.7.9-5.9 2a61 61 0 0 1-9.5 3.5c-3.1.8-7.1 2.3-8.9 3.5-1.9 1.1-4 2-4.8 2a45 45 0 0 0-8.4 3.5 56 56 0 0 1-7.9 3.5c-.6 0-2.6 1.1-4.5 2.4a27 27 0 0 1-6 3.1c-1.4.4-3.8 1.8-5.5 3a19 19 0 0 1-5.5 3c-1.4.4-3.9 1.9-5.6 3.4a94 94 0 0 1-8.4 5.6 96 96 0 0 0-9.1 6l-7.9 6a412 412 0 0 0-55.6 53.2 433 433 0 0 0-29.4 43.1c0 .5-1.2 2.7-2.6 4.8a35 35 0 0 0-4 7.7c-.7 2.1-2.2 4.9-3.3 6.3a15 15 0 0 0-2.6 5.7c-.4 1.8-1.6 4.6-2.6 6.3s-2.8 6.1-3.9 9.7a31 31 0 0 1-2.9 7.2c-.5.3-1.7 3.7-2.6 7.6-.9 4-2.2 8.4-3 10s-2.4 7-3.4 12.1c-1.1 5.1-2.6 11.8-3.4 14.8-.9 3-2.1 10-2.7 15.5s-1.8 13.8-2.8 18.5a559 559 0 0 0 0 91.5c1 4.4 2.4 13.4 3.2 20s2.2 14 3.1 16.5a104 104 0 0 1 3 11.5c.7 3.8 2.2 9.7 3.4 13l3.5 10.5a153 153 0 0 0 8.2 20.5c1.2 2.7 2.8 6.7 3.4 8.7s1.7 4.2 2.5 4.8a13 13 0 0 1 2.6 4.8c.7 2 2.2 5 3.4 6.7 1.3 1.6 2.6 4.1 3 5.5s1.5 3.4 2.5 4.5a27 27 0 0 1 3.3 5c3.4 6.7 14.9 22.8 24.6 34.4a407 407 0 0 0 62.4 58.1 69 69 0 0 0 13.6 9c.6 0 2.5 1.3 4.3 2.8 1.8 1.6 5.1 3.8 7.3 4.9a395 395 0 0 0 49.7 22.8c3.5.9 7.3 2.3 8.5 3.1s5.3 2.1 9 2.9 9.1 2.3 11.8 3.4a62 62 0 0 0 10.5 2.6c3 .4 9.8 1.7 15 3s13.3 2.7 18 3 15 1.3 23 2.2c18.6 2 48.4 2 67 0l23-2.3c4.7-.3 12.6-1.7 17.5-2.9 5-1.3 11.5-2.6 14.5-3s8.2-1.7 11.5-3a80 80 0 0 1 10.5-3c2.5-.4 6.1-1.6 8.1-2.6s5.8-2.3 8.5-3a40 40 0 0 0 9.1-3.5c2.3-1.3 4.8-2.4 5.5-2.4s4-1.3 7.3-3l9.5-4.5c1.9-.9 6.2-3.1 9.5-5l11.1-5.8c2.8-1.4 5.5-3 5.8-3.6.4-.6 2.4-2 4.4-3.1a311 311 0 0 0 54.7-43.6 394 394 0 0 0 27.9-30.2c.5-.9 3-4.4 5.6-7.7a112 112 0 0 0 14.3-21.2c1.3-1.5 3.6-5.1 5.2-7.8 4.7-8.4 17.5-34.2 17.5-35.4 0-.7 1.1-3.3 2.4-5.9s2.8-6.9 3.5-9.6 2-6.5 3.1-8.5c1-2 2.1-5.9 2.6-8.6.4-2.8 1.7-7.9 2.9-11.5a86 86 0 0 0 3.4-15.2 105 105 0 0 1 2.6-13.5q3.7-12.4 3.7-60.3c.1-31.6-1.1-50.4-3.7-60.2-.8-3.1-2.1-10.2-2.9-15.7a100 100 0 0 0-2.9-13.3c-.8-1.8-2.2-6.9-3.2-11.3s-2.4-9.3-3.2-10.9-2.1-5.1-2.8-8c-.8-2.8-2.6-7.3-4-10a24 24 0 0 1-2.5-6.4c0-.9-1.1-3.4-2.4-5.6a47 47 0 0 1-3.5-7.8 13 13 0 0 0-2.6-4.8 13 13 0 0 1-2.6-4.8c-.6-2-2.5-5.5-4-7.6a19 19 0 0 1-2.9-4.9c0-.6-2.1-4.1-4.7-8l-7.3-10.7a336 336 0 0 0-58.1-64.6l-13.4-10.9a172 172 0 0 0-17.4-12.8l-7.5-4.9c-2.3-1.5-5.9-3.7-8.1-4.9a65 65 0 0 1-7-4.4 29 29 0 0 0-6.6-3.4c-2-.6-4.4-2-5.3-3a10 10 0 0 0-5-2.5 18 18 0 0 1-6.6-3.1 13 13 0 0 0-4.9-2.5c-.9 0-4.3-1.3-7.6-2.8a75 75 0 0 0-10.8-4.1c-2.7-.6-5.9-1.8-7-2.6-1.2-.7-5.6-2.1-9.7-3.1s-8.8-2.3-10.3-3.1c-1.6-.8-7-2.1-12-2.9s-11.4-2.2-14.2-3a311 311 0 0 0-30.5-3.9 400 400 0 0 0-68.5-1.5"/></svg>